<mxfile host="app.diagrams.net" modified="2021-12-28T04:55:47.974Z" agent="5.0 (Windows NT 10.0; WOW64) AppleWebKit/537.36 (KHTML, like Gecko) Chrome/96.0.4664.110 Safari/537.36" etag="IDaIfF7TVvZL6rg-Ky8U" version="16.0.0" type="github">
  <diagram id="bxd2tpNLkaN-XFv4WDwM" name="第 1 页">
    <mxGraphModel dx="1822" dy="762" grid="0" gridSize="10" guides="1" tooltips="1" connect="1" arrows="1" fold="1" page="0" pageScale="1" pageWidth="827" pageHeight="1169" math="0" shadow="0">
      <root>
        <mxCell id="0" />
        <mxCell id="1" parent="0" />
        <mxCell id="Mx3tVR5YGephhx1hdb3c-16" value="" style="edgeStyle=orthogonalEdgeStyle;rounded=0;orthogonalLoop=1;jettySize=auto;html=1;sketch=1;" edge="1" parent="1" source="Mx3tVR5YGephhx1hdb3c-1" target="Mx3tVR5YGephhx1hdb3c-2">
          <mxGeometry relative="1" as="geometry" />
        </mxCell>
        <mxCell id="Mx3tVR5YGephhx1hdb3c-1" value="&lt;font style=&quot;font-size: 14px&quot;&gt;&lt;b&gt;开始&lt;/b&gt;&lt;/font&gt;" style="rounded=1;whiteSpace=wrap;html=1;fillColor=#fff2cc;strokeColor=#d6b656;sketch=1;" vertex="1" parent="1">
          <mxGeometry x="329.5" y="81" width="136" height="50" as="geometry" />
        </mxCell>
        <mxCell id="Mx3tVR5YGephhx1hdb3c-17" value="" style="edgeStyle=orthogonalEdgeStyle;rounded=0;orthogonalLoop=1;jettySize=auto;html=1;sketch=1;" edge="1" parent="1" source="Mx3tVR5YGephhx1hdb3c-2" target="Mx3tVR5YGephhx1hdb3c-3">
          <mxGeometry relative="1" as="geometry" />
        </mxCell>
        <mxCell id="Mx3tVR5YGephhx1hdb3c-2" value="&lt;b&gt;申请增加线程&lt;/b&gt;" style="rounded=0;whiteSpace=wrap;html=1;fontSize=14;fillColor=#d5e8d4;strokeColor=#82b366;sketch=1;" vertex="1" parent="1">
          <mxGeometry x="328.5" y="184" width="138" height="48" as="geometry" />
        </mxCell>
        <mxCell id="Mx3tVR5YGephhx1hdb3c-18" value="" style="edgeStyle=orthogonalEdgeStyle;rounded=0;orthogonalLoop=1;jettySize=auto;html=1;sketch=1;" edge="1" parent="1" source="Mx3tVR5YGephhx1hdb3c-3" target="Mx3tVR5YGephhx1hdb3c-4">
          <mxGeometry relative="1" as="geometry" />
        </mxCell>
        <mxCell id="Mx3tVR5YGephhx1hdb3c-29" style="edgeStyle=orthogonalEdgeStyle;rounded=0;orthogonalLoop=1;jettySize=auto;html=1;entryX=0.5;entryY=0;entryDx=0;entryDy=0;sketch=1;" edge="1" parent="1" source="Mx3tVR5YGephhx1hdb3c-3" target="Mx3tVR5YGephhx1hdb3c-6">
          <mxGeometry relative="1" as="geometry" />
        </mxCell>
        <mxCell id="Mx3tVR5YGephhx1hdb3c-3" value="&lt;b&gt;线程池是否已停止&lt;/b&gt;" style="rhombus;whiteSpace=wrap;html=1;sketch=1;fontSize=14;fillColor=#f8cecc;strokeColor=#b85450;" vertex="1" parent="1">
          <mxGeometry x="273" y="285" width="249" height="52" as="geometry" />
        </mxCell>
        <mxCell id="Mx3tVR5YGephhx1hdb3c-19" value="" style="edgeStyle=orthogonalEdgeStyle;rounded=0;orthogonalLoop=1;jettySize=auto;html=1;sketch=1;" edge="1" parent="1" source="Mx3tVR5YGephhx1hdb3c-4" target="Mx3tVR5YGephhx1hdb3c-7">
          <mxGeometry relative="1" as="geometry" />
        </mxCell>
        <mxCell id="Mx3tVR5YGephhx1hdb3c-27" value="" style="edgeStyle=orthogonalEdgeStyle;rounded=0;orthogonalLoop=1;jettySize=auto;html=1;sketch=1;" edge="1" parent="1" source="Mx3tVR5YGephhx1hdb3c-4" target="Mx3tVR5YGephhx1hdb3c-5">
          <mxGeometry relative="1" as="geometry" />
        </mxCell>
        <mxCell id="Mx3tVR5YGephhx1hdb3c-4" value="&lt;b&gt;线程池是否正在停止&lt;/b&gt;" style="rhombus;whiteSpace=wrap;html=1;sketch=1;fontSize=14;fillColor=#f8cecc;strokeColor=#b85450;" vertex="1" parent="1">
          <mxGeometry x="273" y="373" width="249" height="52" as="geometry" />
        </mxCell>
        <mxCell id="Mx3tVR5YGephhx1hdb3c-28" value="" style="edgeStyle=orthogonalEdgeStyle;rounded=0;orthogonalLoop=1;jettySize=auto;html=1;sketch=1;" edge="1" parent="1" source="Mx3tVR5YGephhx1hdb3c-5" target="Mx3tVR5YGephhx1hdb3c-6">
          <mxGeometry relative="1" as="geometry" />
        </mxCell>
        <mxCell id="Mx3tVR5YGephhx1hdb3c-30" style="edgeStyle=orthogonalEdgeStyle;rounded=0;orthogonalLoop=1;jettySize=auto;html=1;entryX=1;entryY=0.5;entryDx=0;entryDy=0;sketch=1;" edge="1" parent="1" source="Mx3tVR5YGephhx1hdb3c-5" target="Mx3tVR5YGephhx1hdb3c-7">
          <mxGeometry relative="1" as="geometry">
            <Array as="points">
              <mxPoint x="712" y="493" />
            </Array>
          </mxGeometry>
        </mxCell>
        <mxCell id="Mx3tVR5YGephhx1hdb3c-5" value="&lt;b&gt;线程是否用于执行剩余任务&lt;/b&gt;" style="rhombus;whiteSpace=wrap;html=1;sketch=1;fontSize=14;fillColor=#f8cecc;strokeColor=#b85450;" vertex="1" parent="1">
          <mxGeometry x="587" y="373" width="249" height="52" as="geometry" />
        </mxCell>
        <mxCell id="Mx3tVR5YGephhx1hdb3c-6" value="&lt;b&gt;增加线程失败&lt;/b&gt;" style="rounded=0;whiteSpace=wrap;html=1;fontSize=14;fillColor=#d5e8d4;strokeColor=#82b366;sketch=1;" vertex="1" parent="1">
          <mxGeometry x="912" y="375" width="138" height="48" as="geometry" />
        </mxCell>
        <mxCell id="Mx3tVR5YGephhx1hdb3c-20" value="" style="edgeStyle=orthogonalEdgeStyle;rounded=0;orthogonalLoop=1;jettySize=auto;html=1;" edge="1" parent="1" source="Mx3tVR5YGephhx1hdb3c-7" target="Mx3tVR5YGephhx1hdb3c-8">
          <mxGeometry relative="1" as="geometry" />
        </mxCell>
        <mxCell id="Mx3tVR5YGephhx1hdb3c-7" value="&lt;b&gt;获取线程数量&lt;/b&gt;" style="rounded=0;whiteSpace=wrap;html=1;fontSize=14;fillColor=#d5e8d4;strokeColor=#82b366;sketch=1;" vertex="1" parent="1">
          <mxGeometry x="328.5" y="469" width="138" height="48" as="geometry" />
        </mxCell>
        <mxCell id="Mx3tVR5YGephhx1hdb3c-21" value="" style="edgeStyle=orthogonalEdgeStyle;rounded=0;orthogonalLoop=1;jettySize=auto;html=1;" edge="1" parent="1" source="Mx3tVR5YGephhx1hdb3c-8" target="Mx3tVR5YGephhx1hdb3c-9">
          <mxGeometry relative="1" as="geometry" />
        </mxCell>
        <mxCell id="Mx3tVR5YGephhx1hdb3c-31" style="edgeStyle=orthogonalEdgeStyle;rounded=0;orthogonalLoop=1;jettySize=auto;html=1;entryX=0.5;entryY=1;entryDx=0;entryDy=0;sketch=1;" edge="1" parent="1" source="Mx3tVR5YGephhx1hdb3c-8" target="Mx3tVR5YGephhx1hdb3c-6">
          <mxGeometry relative="1" as="geometry" />
        </mxCell>
        <mxCell id="Mx3tVR5YGephhx1hdb3c-8" value="&lt;b&gt;线程数是否超过容量&lt;/b&gt;" style="rhombus;whiteSpace=wrap;html=1;sketch=1;fontSize=14;fillColor=#f8cecc;strokeColor=#b85450;" vertex="1" parent="1">
          <mxGeometry x="273" y="561" width="249" height="52" as="geometry" />
        </mxCell>
        <mxCell id="Mx3tVR5YGephhx1hdb3c-22" value="" style="edgeStyle=orthogonalEdgeStyle;rounded=0;orthogonalLoop=1;jettySize=auto;html=1;" edge="1" parent="1" source="Mx3tVR5YGephhx1hdb3c-9" target="Mx3tVR5YGephhx1hdb3c-10">
          <mxGeometry relative="1" as="geometry" />
        </mxCell>
        <mxCell id="Mx3tVR5YGephhx1hdb3c-32" style="edgeStyle=orthogonalEdgeStyle;rounded=0;orthogonalLoop=1;jettySize=auto;html=1;sketch=1;" edge="1" parent="1" source="Mx3tVR5YGephhx1hdb3c-9">
          <mxGeometry relative="1" as="geometry">
            <mxPoint x="981" y="424" as="targetPoint" />
          </mxGeometry>
        </mxCell>
        <mxCell id="Mx3tVR5YGephhx1hdb3c-9" value="&lt;b&gt;新增线程是否超过对应核心数&lt;/b&gt;" style="rhombus;whiteSpace=wrap;html=1;sketch=1;fontSize=14;fillColor=#f8cecc;strokeColor=#b85450;" vertex="1" parent="1">
          <mxGeometry x="273" y="659" width="249" height="52" as="geometry" />
        </mxCell>
        <mxCell id="Mx3tVR5YGephhx1hdb3c-23" value="" style="edgeStyle=orthogonalEdgeStyle;rounded=0;orthogonalLoop=1;jettySize=auto;html=1;" edge="1" parent="1" source="Mx3tVR5YGephhx1hdb3c-10" target="Mx3tVR5YGephhx1hdb3c-11">
          <mxGeometry relative="1" as="geometry" />
        </mxCell>
        <mxCell id="Mx3tVR5YGephhx1hdb3c-10" value="&lt;b&gt;尝试登记线程数&lt;/b&gt;" style="rounded=0;whiteSpace=wrap;html=1;fontSize=14;fillColor=#d5e8d4;strokeColor=#82b366;sketch=1;" vertex="1" parent="1">
          <mxGeometry x="328.5" y="757" width="138" height="48" as="geometry" />
        </mxCell>
        <mxCell id="Mx3tVR5YGephhx1hdb3c-24" value="" style="edgeStyle=orthogonalEdgeStyle;rounded=0;orthogonalLoop=1;jettySize=auto;html=1;" edge="1" parent="1" source="Mx3tVR5YGephhx1hdb3c-11" target="Mx3tVR5YGephhx1hdb3c-13">
          <mxGeometry relative="1" as="geometry" />
        </mxCell>
        <mxCell id="Mx3tVR5YGephhx1hdb3c-33" value="" style="edgeStyle=orthogonalEdgeStyle;rounded=0;orthogonalLoop=1;jettySize=auto;html=1;" edge="1" parent="1" source="Mx3tVR5YGephhx1hdb3c-11" target="Mx3tVR5YGephhx1hdb3c-12">
          <mxGeometry relative="1" as="geometry" />
        </mxCell>
        <mxCell id="Mx3tVR5YGephhx1hdb3c-11" value="&lt;b&gt;登记线程数是否成功&lt;/b&gt;" style="rhombus;whiteSpace=wrap;html=1;sketch=1;fontSize=14;fillColor=#f8cecc;strokeColor=#b85450;" vertex="1" parent="1">
          <mxGeometry x="273" y="848" width="249" height="52" as="geometry" />
        </mxCell>
        <mxCell id="Mx3tVR5YGephhx1hdb3c-34" style="edgeStyle=orthogonalEdgeStyle;rounded=0;orthogonalLoop=1;jettySize=auto;html=1;entryX=0;entryY=0.5;entryDx=0;entryDy=0;" edge="1" parent="1" source="Mx3tVR5YGephhx1hdb3c-12" target="Mx3tVR5YGephhx1hdb3c-7">
          <mxGeometry relative="1" as="geometry">
            <Array as="points">
              <mxPoint x="82" y="493" />
            </Array>
          </mxGeometry>
        </mxCell>
        <mxCell id="Mx3tVR5YGephhx1hdb3c-35" style="edgeStyle=orthogonalEdgeStyle;rounded=0;orthogonalLoop=1;jettySize=auto;html=1;entryX=0;entryY=0.5;entryDx=0;entryDy=0;sketch=1;" edge="1" parent="1" source="Mx3tVR5YGephhx1hdb3c-12" target="Mx3tVR5YGephhx1hdb3c-3">
          <mxGeometry relative="1" as="geometry">
            <Array as="points">
              <mxPoint x="-78" y="874" />
              <mxPoint x="-78" y="311" />
            </Array>
          </mxGeometry>
        </mxCell>
        <mxCell id="Mx3tVR5YGephhx1hdb3c-12" value="&lt;b&gt;线程池状态是否改变&lt;/b&gt;" style="rhombus;whiteSpace=wrap;html=1;sketch=1;fontSize=14;fillColor=#f8cecc;strokeColor=#b85450;" vertex="1" parent="1">
          <mxGeometry x="-43" y="848" width="249" height="52" as="geometry" />
        </mxCell>
        <mxCell id="Mx3tVR5YGephhx1hdb3c-25" value="" style="edgeStyle=orthogonalEdgeStyle;rounded=0;orthogonalLoop=1;jettySize=auto;html=1;" edge="1" parent="1" source="Mx3tVR5YGephhx1hdb3c-13" target="Mx3tVR5YGephhx1hdb3c-14">
          <mxGeometry relative="1" as="geometry" />
        </mxCell>
        <mxCell id="Mx3tVR5YGephhx1hdb3c-13" value="&lt;b&gt;增加线程&lt;/b&gt;" style="rounded=0;whiteSpace=wrap;html=1;fontSize=14;fillColor=#d5e8d4;strokeColor=#82b366;sketch=1;" vertex="1" parent="1">
          <mxGeometry x="328.5" y="943" width="138" height="48" as="geometry" />
        </mxCell>
        <mxCell id="Mx3tVR5YGephhx1hdb3c-26" value="" style="edgeStyle=orthogonalEdgeStyle;rounded=0;orthogonalLoop=1;jettySize=auto;html=1;" edge="1" parent="1" source="Mx3tVR5YGephhx1hdb3c-14" target="Mx3tVR5YGephhx1hdb3c-15">
          <mxGeometry relative="1" as="geometry" />
        </mxCell>
        <mxCell id="Mx3tVR5YGephhx1hdb3c-14" value="&lt;b&gt;启动线程&lt;/b&gt;" style="rounded=0;whiteSpace=wrap;html=1;fontSize=14;fillColor=#d5e8d4;strokeColor=#82b366;sketch=1;" vertex="1" parent="1">
          <mxGeometry x="328.5" y="1034" width="138" height="48" as="geometry" />
        </mxCell>
        <mxCell id="Mx3tVR5YGephhx1hdb3c-15" value="&lt;font style=&quot;font-size: 14px&quot;&gt;&lt;b&gt;开始&lt;/b&gt;&lt;/font&gt;" style="rounded=1;whiteSpace=wrap;html=1;fillColor=#fff2cc;strokeColor=#d6b656;sketch=1;" vertex="1" parent="1">
          <mxGeometry x="329.5" y="1125" width="136" height="50" as="geometry" />
        </mxCell>
        <mxCell id="Mx3tVR5YGephhx1hdb3c-36" value="是" style="text;html=1;strokeColor=none;fillColor=none;align=center;verticalAlign=middle;whiteSpace=wrap;rounded=0;sketch=1;fontSize=14;" vertex="1" parent="1">
          <mxGeometry x="524" y="280" width="60" height="30" as="geometry" />
        </mxCell>
        <mxCell id="Mx3tVR5YGephhx1hdb3c-37" value="是" style="text;html=1;strokeColor=none;fillColor=none;align=center;verticalAlign=middle;whiteSpace=wrap;rounded=0;sketch=1;fontSize=14;" vertex="1" parent="1">
          <mxGeometry x="522" y="367" width="60" height="30" as="geometry" />
        </mxCell>
        <mxCell id="Mx3tVR5YGephhx1hdb3c-38" value="否" style="text;html=1;strokeColor=none;fillColor=none;align=center;verticalAlign=middle;whiteSpace=wrap;rounded=0;sketch=1;fontSize=14;" vertex="1" parent="1">
          <mxGeometry x="397" y="425" width="60" height="30" as="geometry" />
        </mxCell>
        <mxCell id="Mx3tVR5YGephhx1hdb3c-39" value="否" style="text;html=1;strokeColor=none;fillColor=none;align=center;verticalAlign=middle;whiteSpace=wrap;rounded=0;sketch=1;fontSize=14;" vertex="1" parent="1">
          <mxGeometry x="397" y="337" width="60" height="30" as="geometry" />
        </mxCell>
        <mxCell id="Mx3tVR5YGephhx1hdb3c-40" value="否" style="text;html=1;strokeColor=none;fillColor=none;align=center;verticalAlign=middle;whiteSpace=wrap;rounded=0;sketch=1;fontSize=14;" vertex="1" parent="1">
          <mxGeometry x="844" y="367" width="60" height="30" as="geometry" />
        </mxCell>
        <mxCell id="Mx3tVR5YGephhx1hdb3c-41" value="是" style="text;html=1;strokeColor=none;fillColor=none;align=center;verticalAlign=middle;whiteSpace=wrap;rounded=0;sketch=1;fontSize=14;" vertex="1" parent="1">
          <mxGeometry x="713" y="425" width="60" height="30" as="geometry" />
        </mxCell>
      </root>
    </mxGraphModel>
  </diagram>
</mxfile>
